# AST/ASF file generated using VICON BodyLanguage
# -----------------------------------------------
:version 1.10
:name VICON
:units
  mass 1.0
  length 0.45
  angle deg
:documentation
   .ast/.asf automatically generated from VICON data using
   VICON BodyBuilder and BodyLanguage model FoxedUp or BRILLIANT.MOD
:root
   order TX TY TZ RX RY RZ
   axis XYZ
   position 0 0 0  
   orientation 0 0 0 
:bonedata
  begin
     id 1 
     name lhipjoint
     direction 0.822369 -0.411937 0.392449 
     length 3.8167 
     axis 0 0 0  XYZ
  end
  begin
     id 2 
     name lfemur
     direction 0.34202 -0.939693 0  
     length 6.16791  
     axis 0 0 20  XYZ
    dof rx ry rz
    limits (-160.0 20.0)
           (-70.0 70.0)
           (-60.0 70.0)
  end
  begin
     id 3 
     name ltibia
     direction 0.34202 -0.939693 0   
     length 7.07101   
     axis 0 0 20   XYZ
    dof rx
    limits (-10.0 170.0)
  end
  begin
     id 4 
     name lfoot
     direction 0.028254 -0.0776273 0.996582   
     length 1.66799   
     axis -90 7.62852e-016 20   XYZ
    dof rx rz
    limits (-45.0 90.0)
           (-70.0 20.0)
  end
  begin
     id 5 
     name ltoes
     direction 1.53483e-011 -4.21688e-011 1   
     length 0.851674   
     axis -90 7.62852e-016 20   XYZ
    dof rx
    limits (-90.0 20.0)
  end
  begin
     id 6 
     name rhipjoint
     direction -0.822466 -0.411836 0.392353   
     length 3.81764  
     axis 0 0 0  XYZ 
  end
  begin
     id 7 
     name rfemur
     direction -0.34202 -0.939693 0   
     length 6.28636   
     axis 0 0 -20   XYZ
    dof rx ry rz
    limits (-160.0 20.0)
           (-70.0 70.0)
           (-70.0 60.0)
  end
  begin
     id 8 
     name rtibia
     direction -0.34202 -0.939693 0   
     length 6.85621   
     axis 0 0 -20   XYZ
    dof rx
    limits (-10.0 170.0)
 end
 begin
     id 9 
     name rfoot
     direction -0.0553036 -0.151945 0.98684   
     length 1.57293  
     axis -90 -7.62852e-016 -20   XYZ
    dof rx rz
    limits (-45.0 90.0)
           (-20.0 70.0)
  end
  begin
     id 10 
     name rtoes
     direction -1.53592e-011 -4.21964e-011 1   
     length 0.802812   
     axis -90 -7.62852e-016 -20   XYZ
    dof rx
    limits (-90.0 20.0)
  end
  begin
     id 11 
     name lowerback
     direction 0.00654913 0.996475 -0.0836396   
     length 1.97212   
     axis 0 0 0   XYZ
    dof rx ry rz
    limits (-20.0 45.0)
           (-30.0 30.0)
           (-30.0 30.0)
  end
  begin
     id 12 
     name upperback
     direction 0.0111875 0.994527 0.103877   
     length 1.89704   
     axis 0 0 0   XYZ
    dof rx ry rz
    limits (-20.0 45.0)
           (-30.0 30.0)
           (-30.0 30.0)
  end
  begin
     id 13 
     name thorax
     direction 0.00473652 0.989004 0.147814   
     length 1.94516   
     axis 0 0 0   XYZ
    dof rx ry rz
    limits (-20.0 45.0)
           (-30.0 30.0)
           (-30.0 30.0)
  end
  begin
     id 14 
     name lowerneck
     direction -0.00925808 0.999011 0.0434791   
     length 1.81771   
     axis 0 0 0   XYZ
    dof rx ry rz
    limits (-20.0 45.0)
           (-30.0 30.0)
           (-30.0 30.0)
  end
  begin
     id 15 
     name upperneck
     direction 0.00451595 0.964412 -0.264365   
     length 1.80434   
     axis 0 0 0   XYZ
    dof rx ry rz
    limits (-20.0 45.0)
           (-30.0 30.0)
           (-30.0 30.0)
  end
  begin
     id 16
     name head
     direction -0.00110849 0.995756 -0.0920241  
     length 1.84006  
     axis 0 0 0   XYZ
    dof rx ry rz
    limits (-20.0 45.0)
           (-30.0 30.0)
           (-30.0 30.0)
  end
  begin
     id 17 
     name lclavicle
     direction 0.921253 0.385213 0.0538957  
     length 3.67415  
     axis 0 0 0   XYZ
    dof ry rz
    limits (-20.0 10.0)
           (0.0 20.0)
  end
  begin
     id 18 
     name lhumerus
     direction 1 -4.48961e-011 6.73441e-028   
     length 4.32712   
     axis 180 -30 -90   XYZ
    dof rx ry rz
    limits (-60.0 90.0)
           (-90.0 90.0)
           (-90.0 90.0)
  end
  begin
     id 19
     name lradius
     direction 1 -4.48985e-011 -9.53507e-028   
     length 3.28587   
     axis 180 -30 -90   XYZ
    dof rx
    limits (-10.0 170.0)
  end
  begin
     id 20
     name lwrist
     direction 1 -4.48951e-011 -4.67472e-027   
     length 1.64293   
     axis 1.65735e-015 90 90   XYZ
    dof ry
    limits (-180.0 0.0)
 end
  begin
     id 21 
     name lhand
     direction 1 -4.48946e-011 -9.34945e-027   
     length 0.433158   
     axis 5.96574e-015 90 90   XYZ
    dof rx rz
    limits (-90.0 90.0)
           (-45.0 45.0)
  end
  begin
     id 22 
     name lfingers
     direction 1 -4.48882e-011 -1.86989e-026   
     length 0.349224   
     axis 1.19315e-014 90 90   XYZ
    dof rx
    limits (0.0 90.0)
  end
  begin
     id 23
     name lthumb
     direction 0.707107 -6.3493e-011 0.707107   
     length 0.501417   
     axis -90 45 2.85299e-015   XYZ
    dof rx rz
    limits (-45.0 45.0)
           (-45.0 45.0)
  end
  begin
     id 24 
     name rclavicle
     direction -0.884378 0.46502 -0.0403866   
     length 3.50218  
     axis 0 0 0   XYZ 
    dof ry rz
    limits (-10.0 20.0)
           (-20.0 0.0)
  end
  begin
     id 25 
     name rhumerus
     direction -1 -4.48964e-011 1.58188e-027  
     length 4.29104   
     axis 180 30 90   XYZ
    dof rx ry rz
    limits (-90.0 60.0)
           (-90.0 90.0)
           (-90.0 90.0)
  end
  begin
     id 26 
     name rradius
     direction -1 -4.48978e-011 -1.9722e-027   
     length 3.2272   
     axis 180 30 90   XYZ
    dof rx
    limits (-10.0 170.0)
  end
  begin
     id 27 
     name rwrist
     direction -1 -4.48969e-011 -4.67472e-027   
     length 1.6136   
     axis 1.65735e-015 -90 -90   XYZ
    dof ry
    limits (-180.0 0.0)
  end
  begin
     id 28
     name rhand
     direction -1 -4.48846e-011 -9.34945e-027   
     length 0.543623   
     axis 5.96574e-015 -90 -90   XYZ
    dof rx rz
    limits (-90.0 90.0)
           (-45.0 45.0)
  end
  begin
     id 29
     name rfingers
     direction -1 -4.49074e-011 -1.86989e-026   
     length 0.438283   
     axis 1.19315e-014 -90 -90   XYZ
    dof rx
    limits (0.0 90.0)
  end
  begin
     id 30
     name rthumb
     direction -0.707107 -6.34834e-011 0.707107   
     length 0.629289   
     axis -90 -45 -2.85299e-015   XYZ
    dof rx rz
    limits (-45.0 45.0)
           (-45.0 45.0)
  end
:hierarchy
  begin
    root lhipjoint rhipjoint lowerback
    lhipjoint lfemur
    lfemur ltibia
    ltibia lfoot
    lfoot ltoes
    rhipjoint rfemur
    rfemur rtibia
    rtibia rfoot
    rfoot rtoes
    lowerback upperback
    upperback thorax
    thorax lowerneck lclavicle rclavicle
    lowerneck upperneck
    upperneck head
    lclavicle lhumerus
    lhumerus lradius
    lradius lwrist
    lwrist lhand lthumb
    lhand lfingers
    rclavicle rhumerus
    rhumerus rradius
    rradius rwrist
    rwrist rhand rthumb
    rhand rfingers
  end

#!OML:ASF H:\GeneralSubjects\Female5\Project 1\Capture day 1\Session 1\Female5.ASF
:FULLY-SPECIFIED
:DEGREES
33
root -34.2867 15.6155 0.891101 -187.084 78.232 164.015
lowerback 8.39252 1.79245 -4.28275
upperback -9.44945 1.81641 -2.11676
thorax -15.3209 1.28667 -0.398869
lowerneck -25.4006 -0.266459 -5.88904
upperneck 45.585 2.91967 5.69993
head 24.5908 1.48132 5.71807
rclavicle -2.33572e-015 2.34566e-014
rhumerus -47.6769 14.9594 -86.4965
rradius 33.5278
rwrist -12.6731
rhand -17.7959 -25.0629
rfingers 7.12502
rthumb 8.46733 -54.8731
lclavicle -2.33572e-015 2.34566e-014
lhumerus -46.8068 16.5307 64.4497
lradius 30.7547
lwrist -8.73128
lhand -21.2548 34.4714
lfingers 7.12502
lthumb 5.12833 64.3893
rfemur -31.7157 11.3648 10.7415
rtibia 7.75227
rfoot -28.9794 -30.306
rtoes 0.351435
lfemur 8.95755 -28.899 -42.3937
ltibia -6.40791
lfoot -35.6995 33.7974
ltoes -63.3221
34
root -34.181 15.6125 0.892088 -187.653 78.0501 163.295
lowerback 8.32421 1.73132 -4.30451
upperback -9.47961 1.72996 -2.1758
thorax -15.3096 1.24684 -0.433183
lowerneck -25.4353 -0.338035 -5.87835
upperneck 45.6975 2.81489 5.72068
head 24.745 1.44343 5.72759
rclavicle 4.06515e-014 -1.11319e-014
rhumerus -47.8095 14.5771 -86.3543
rradius 33.2729
rwrist -13.0162
rhand -17.5272 -25.2936
rfingers 7.12502
rthumb 8.72664 -55.0932
lclavicle 4.06515e-014 -1.11319e-014
lhumerus -46.5661 16.5925 64.6425
lradius 30.5099
lwrist -9.75347
lhand -20.3547 34.6954
lfingers 7.12502
lthumb 5.9974 64.5905
rfemur -31.8388 14.3721 8.67817
rtibia 5.33761
rfoot -31.768 -31.0284
rtoes 3.16095
lfemur 9.31043 -28.6638 -42.623
ltibia -6.41207
lfoot -35.9512 32.9702
ltoes -63.1035
35
root -34.0701 15.61 0.893772 -188.619 77.7813 162.153
lowerback 8.30481 1.65564 -4.38881
upperback -9.5609 1.60967 -2.265
thorax -15.3936 1.19849 -0.464649
lowerneck -25.3183 -0.331431 -5.91079
upperneck 45.8054 2.83345 5.80664
head 24.8025 1.45864 5.80486
rclavicle 4.08999e-014 6.36111e-015
rhumerus -48.0509 14.2048 -86.2268
rradius 33.0678
rwrist -13.4816
rhand -17.3108 -25.5313
rfingers 7.12502
rthumb 8.93541 -55.3221
lclavicle 4.08999e-014 6.36111e-015
lhumerus -46.3924 16.5184 64.9665
lradius 30.3512
lwrist -10.02
lhand -20.4147 35.1405
lfingers 7.12502
lthumb 5.93943 65.0372
rfemur -32.0917 17.308 6.42191
rtibia 3.35979
rfoot -32.9916 -32.9707
rtoes 2.96929
lfemur 9.69916 -28.7325 -43.0342
ltibia -6.43416
lfoot -36.1858 32.8304
ltoes -63.1681
36
root -33.9556 15.6042 0.895665 -189.324 77.533 161.259
lowerback 8.26045 1.59077 -4.41213
upperback -9.62847 1.51584 -2.34397
thorax -15.4433 1.15581 -0.522476
lowerneck -25.2466 -0.306388 -6.00305
upperneck 45.8448 2.83338 6.02004
head 24.8054 1.47267 5.95501
rclavicle -2.17172e-014 -1.07344e-014
rhumerus -48.201 13.7974 -86.0171
rradius 32.8295
rwrist -13.5916
rhand -16.2703 -26.2825
rfingers 7.12502
rthumb 9.93941 -56.0278
lclavicle -2.17172e-014 -1.07344e-014
lhumerus -46.1263 16.1444 65.5199
lradius 30.2927
lwrist -9.73933
lhand -21.0528 35.4595
lfingers 7.12502
lthumb 5.32334 65.3726
rfemur -32.5615 20.2021 4.17043
rtibia 1.93303
rfoot -33.0923 -35.5529
rtoes -0.989145
lfemur 9.97049 -28.6418 -43.3336
ltibia -6.40068
lfoot -36.204 32.6587
ltoes -63.281
37
root -33.8324 15.5946 0.900107 -189.686 77.2742 160.716
lowerback 8.18873 1.54449 -4.43806
upperback -9.68116 1.45362 -2.37756
thorax -15.4595 1.13074 -0.532788
lowerneck -25.2872 -0.345888 -6.07254
upperneck 45.8432 2.77897 6.07655
head 24.8305 1.44625 5.99247
rclavicle 1.88845e-015 -2.70347e-014
rhumerus -48.3599 13.2516 -85.5575
rradius 32.7451
rwrist -13.3295
rhand -12.9254 -28.4746
rfingers 7.12502
rthumb 13.1651 -58.039
lclavicle 1.88845e-015 -2.70347e-014
lhumerus -45.7535 16.062 65.9157
lradius 30.1088
lwrist -9.84588
lhand -20.9847 35.4684
lfingers 7.12502
lthumb 5.38911 65.3799
rfemur -33.0851 22.8196 2.11564
rtibia 0.946731
rfoot -32.2946 -38.0942
rtoes -6.69402
lfemur 10.2823 -28.5594 -43.5516
ltibia -6.35822
lfoot -36.385 32.2401
ltoes -63.3723
38
root -33.7007 15.5824 0.904606 -190.001 77.0432 160.217
lowerback 8.06187 1.52067 -4.48572
upperback -9.72187 1.42484 -2.39229
thorax -15.4278 1.1247 -0.514223
lowerneck -25.4278 -0.433901 -6.05787
upperneck 45.8182 2.68985 5.93117
head 24.8888 1.39241 5.88505
rclavicle 5.31749e-015 -3.73715e-014
rhumerus -48.5104 12.611 -84.9149
rradius 32.8114
rwrist -13.164
rhand -11.0078 -28.8813
rfingers 7.12502
rthumb 15.013 -58.317
lclavicle 5.31749e-015 -3.73715e-014
lhumerus -45.3856 16.347 66.1115
lradius 29.8825
lwrist -10.2109
lhand -20.5803 35.6248
lfingers 7.12502
lthumb 5.77953 65.526
rfemur -33.5277 24.1096 0.880412
rtibia 0.540659
rfoot -31.8501 -39.1246
rtoes -9.03581
lfemur 10.6444 -28.4238 -43.7511
ltibia -6.34284
lfoot -36.4024 32.0047
ltoes -63.6544
39
root -33.5649 15.5654 0.907109 -190.227 76.8872 159.763
lowerback 7.85237 1.52172 -4.46927
upperback -9.77921 1.44772 -2.39807
thorax -15.3621 1.13713 -0.529982
lowerneck -25.5477 -0.560691 -6.15294
upperneck 45.7902 2.51278 5.9484
head 24.9462 1.30893 5.87323
rclavicle -5.41688e-014 -5.56597e-015
rhumerus -48.5955 12 -84.1657
rradius 32.9929
rwrist -13.3012
rhand -14.084 -25.9126
rfingers 7.12502
rthumb 12.0481 -55.5457
lclavicle -5.41688e-014 -5.56597e-015
lhumerus -45.1639 16.2442 66.5396
lradius 29.9523
lwrist -10.1534
lhand -20.5045 35.8022
lfingers 7.12502
lthumb 5.85276 65.7014
rfemur -33.8774 23.4581 0.888855
rtibia 0.842165
rfoot -31.4613 -37.7964
rtoes -8.03339
lfemur 11.0152 -28.4145 -43.9792
ltibia -6.32604
lfoot -36.5443 31.9397
ltoes -63.6786
